<svg width="540" height="220" viewBox="0 0 540 220" fill="none" xmlns="http://www.w3.org/2000/svg" role="img" aria-labelledby="title desc">
  <title id="title">sine-io GitHub snapshot</title>
  <desc id="desc">A cyber-wave themed GitHub snapshot card for sine-io with public repository, source repository, followers, stars, and forks counts.</desc>
  <defs>
    <linearGradient id="bg" x1="0" y1="0" x2="540" y2="220" gradientUnits="userSpaceOnUse">
      <stop stop-color="#040814"/>
      <stop offset="1" stop-color="#0A1124"/>
    </linearGradient>
    <linearGradient id="accent" x1="30" y1="0" x2="510" y2="0" gradientUnits="userSpaceOnUse">
      <stop stop-color="#00E5FF"/>
      <stop offset="1" stop-color="#5B8CFF"/>
    </linearGradient>
    <filter id="glow" x="-20%" y="-20%" width="140%" height="140%" color-interpolation-filters="sRGB">
      <feGaussianBlur stdDeviation="6" result="blur"/>
      <feMerge>
        <feMergeNode in="blur"/>
        <feMergeNode in="SourceGraphic"/>
      </feMerge>
    </filter>
  </defs>

  <rect width="540" height="220" rx="24" fill="url(#bg)"/>
  <rect x="1" y="1" width="538" height="218" rx="23" stroke="#12324B" stroke-opacity="0.85"/>

  <path d="M30 74C56 62 82 38 108 38C134 38 160 74 186 74C212 74 238 38 264 38C290 38 316 74 342 74C368 74 394 38 420 38C446 38 472 74 498 74C506 74 512 71 510 71" stroke="url(#accent)" stroke-width="3.5" stroke-linecap="round" filter="url(#glow)"/>

  <text x="30" y="110" fill="#E9FBFF" font-family="JetBrains Mono, Consolas, monospace" font-size="22" font-weight="700">GitHub Snapshot</text>
  <text x="30" y="134" fill="#82A8C9" font-family="JetBrains Mono, Consolas, monospace" font-size="12" letter-spacing="2">PUBLIC API SNAPSHOT • 2026-04-14</text>

  <g font-family="JetBrains Mono, Consolas, monospace">
    <text x="30" y="172" fill="#8AA6C2" font-size="12">Public repos</text>
    <text x="30" y="198" fill="#F3FCFF" font-size="28" font-weight="700">27</text>

    <text x="170" y="172" fill="#8AA6C2" font-size="12">Source repos</text>
    <text x="170" y="198" fill="#F3FCFF" font-size="28" font-weight="700">16</text>

    <text x="310" y="172" fill="#8AA6C2" font-size="12">Followers</text>
    <text x="310" y="198" fill="#F3FCFF" font-size="28" font-weight="700">4</text>

    <text x="430" y="172" fill="#8AA6C2" font-size="12">Stars</text>
    <text x="430" y="198" fill="#F3FCFF" font-size="28" font-weight="700">94</text>
  </g>

  <rect x="360" y="96" width="150" height="34" rx="10" fill="#081728" stroke="#12324B"/>
  <text x="378" y="118" fill="#8AA6C2" font-family="JetBrains Mono, Consolas, monospace" font-size="12">Forks</text>
  <text x="470" y="118" text-anchor="end" fill="#00E5FF" font-family="JetBrains Mono, Consolas, monospace" font-size="16" font-weight="700">19</text>
</svg>
