<svg width="540" height="220" viewBox="0 0 540 220" fill="none" xmlns="http://www.w3.org/2000/svg" role="img" aria-labelledby="title desc">
  <title id="title">sine-io top languages</title>
  <desc id="desc">A cyber-wave themed top languages card for sine-io showing Python, Java, Go, TypeScript, and JavaScript across non-fork repositories.</desc>
  <defs>
    <linearGradient id="bg" x1="0" y1="0" x2="540" y2="220" gradientUnits="userSpaceOnUse">
      <stop stop-color="#040814"/>
      <stop offset="1" stop-color="#0A1124"/>
    </linearGradient>
    <linearGradient id="accent" x1="30" y1="0" x2="510" y2="0" gradientUnits="userSpaceOnUse">
      <stop stop-color="#00E5FF"/>
      <stop offset="1" stop-color="#5B8CFF"/>
    </linearGradient>
    <filter id="glow" x="-20%" y="-20%" width="140%" height="140%" color-interpolation-filters="sRGB">
      <feGaussianBlur stdDeviation="6" result="blur"/>
      <feMerge>
        <feMergeNode in="blur"/>
        <feMergeNode in="SourceGraphic"/>
      </feMerge>
    </filter>
  </defs>

  <rect width="540" height="220" rx="24" fill="url(#bg)"/>
  <rect x="1" y="1" width="538" height="218" rx="23" stroke="#12324B" stroke-opacity="0.85"/>

  <path d="M30 54H120" stroke="url(#accent)" stroke-width="3.5" stroke-linecap="round" filter="url(#glow)"/>
  <text x="30" y="88" fill="#E9FBFF" font-family="JetBrains Mono, Consolas, monospace" font-size="22" font-weight="700">Top Languages</text>
  <text x="30" y="112" fill="#82A8C9" font-family="JetBrains Mono, Consolas, monospace" font-size="12" letter-spacing="2">16 NON-FORK REPOS • 2026-04-05</text>

  <g font-family="JetBrains Mono, Consolas, monospace" font-size="11">
    <text x="30" y="136" fill="#D8F8FF">Python</text>
    <rect x="128" y="128" width="248" height="8" rx="4" fill="#0D2235"/>
    <rect x="128" y="128" width="248" height="8" rx="4" fill="#00E5FF"/>
    <text x="505" y="136" text-anchor="end" fill="#D8F8FF">35.9%</text>

    <text x="30" y="154" fill="#D8F8FF">Java</text>
    <rect x="128" y="146" width="248" height="8" rx="4" fill="#0D2235"/>
    <rect x="128" y="146" width="177" height="8" rx="4" fill="#5B8CFF"/>
    <text x="505" y="154" text-anchor="end" fill="#D8F8FF">25.7%</text>

    <text x="30" y="172" fill="#D8F8FF">Go</text>
    <rect x="128" y="164" width="248" height="8" rx="4" fill="#0D2235"/>
    <rect x="128" y="164" width="154" height="8" rx="4" fill="#4BD6C5"/>
    <text x="505" y="172" text-anchor="end" fill="#D8F8FF">22.4%</text>

    <text x="30" y="190" fill="#D8F8FF">TypeScript</text>
    <rect x="128" y="182" width="248" height="8" rx="4" fill="#0D2235"/>
    <rect x="128" y="182" width="36" height="8" rx="4" fill="#8A7DFF"/>
    <text x="505" y="190" text-anchor="end" fill="#D8F8FF">5.2%</text>

    <text x="30" y="208" fill="#D8F8FF">JavaScript</text>
    <rect x="128" y="200" width="248" height="8" rx="4" fill="#0D2235"/>
    <rect x="128" y="200" width="25" height="8" rx="4" fill="#FFC857"/>
    <text x="505" y="208" text-anchor="end" fill="#D8F8FF">3.6%</text>
  </g>
</svg>
